#tb 0: 1/25
#media_type 0: video
#codec_id 0: rawvideo
#dimensions 0: 300x168
#sar 0: 0/1
0,          0,          0,        1,    75600, 0x6f6a8c48
0,          1,          1,        1,    75600, 0x4b7ac558
0,          2,          2,        1,    75600, 0x907feda3
0,          3,          3,        1,    75600, 0x7b2b17d2
0,          4,          4,        1,    75600, 0x46d038e7
0,          5,          5,        1,    75600, 0x90d463b3
0,          6,          6,        1,    75600, 0xc00d7ec1
0,          7,          7,        1,    75600, 0x10f69a60
0,          8,          8,        1,    75600, 0x676aad50
0,          9,          9,        1,    75600, 0x0a3fd3e0
0,         10,         10,        1,    75600, 0xaee8fc87
0,         11,         11,        1,    75600, 0xc9f41fbb
0,         12,         12,        1,    75600, 0x183743dd
0,         13,         13,        1,    75600, 0xf0385aa2
0,         14,         14,        1,    75600, 0xad63782e
0,         15,         15,        1,    75600, 0x9ed08c01
0,         16,         16,        1,    75600, 0x79aba20e
0,         17,         17,        1,    75600, 0x53d6c34c
0,         18,         18,        1,    75600, 0x4cead515
0,         19,         19,        1,    75600, 0xc701e3c8
0,         20,         20,        1,    75600, 0xb278e37d
0,         21,         21,        1,    75600, 0x02e6f95e
0,         22,         22,        1,    75600, 0x5cdffef4
0,         23,         23,        1,    75600, 0x6e0a1089
0,         24,         24,        1,    75600, 0x23a919b5
0,         25,         25,        1,    75600, 0x31f5391c
0,         26,         26,        1,    75600, 0xaa2c3445
0,         27,         27,        1,    75600, 0x42204340
0,         28,         28,        1,    75600, 0x55924031
0,         29,         29,        1,    75600, 0x6bc94d1b
0,         30,         30,        1,    75600, 0x3e1a1e21
0,         31,         31,        1,    75600, 0xaf4816fc
0,         32,         32,        1,    75600, 0x322c1d18
0,         33,         33,        1,    75600, 0xf59c1746
0,         34,         34,        1,    75600, 0x875cfc24
0,         35,         35,        1,    75600, 0x8657f65b
0,         36,         36,        1,    75600, 0x7e78f95f
0,         37,         37,        1,    75600, 0x7639e983
0,         38,         38,        1,    75600, 0xcdaac5fa
0,         39,         39,        1,    75600, 0x2b7ac473
0,         40,         40,        1,    75600, 0x028cb98f
0,         41,         41,        1,    75600, 0x023abda4
0,         42,         42,        1,    75600, 0x9733ad92
0,         43,         43,        1,    75600, 0xfb4f8cfe
0,         44,         44,        1,    75600, 0xfef071b6
0,         45,         45,        1,    75600, 0xf7513219
0,         46,         46,        1,    75600, 0x9d6e3c98
0,         47,         47,        1,    75600, 0xd5501ac7
0,         48,         48,        1,    75600, 0xa00201f1
0,         49,         49,        1,    75600, 0xee84e8c6
